<svg xmlns="http://www.w3.org/2000/svg" version="1.1" xmlns:xlink="http://www.w3.org/1999/xlink" xmlns:svgjs="http://svgjs.dev/svgjs" width="2000" height="1999" viewBox="0 0 2000 1999"><g transform="matrix(1,0,0,1,-0.431486880466764,-0.4312711370263287)"><svg viewBox="0 0 343 343" data-background-color="#ffffff" preserveAspectRatio="xMidYMid meet" height="1999" width="2000" xmlns="http://www.w3.org/2000/svg" xmlns:xlink="http://www.w3.org/1999/xlink"><g id="tight-bounds" transform="matrix(1,0,0,1,0.0740000000000407,0.07400000000001228)"><svg viewBox="0 0 342.85155851775386 342.85155851775386" height="342.85155851775386" width="342.85155851775386"><g><svg></svg></g><g><svg viewBox="0 0 342.85155851775386 342.85155851775386" height="342.85155851775386" width="342.85155851775386"><g><path d="M0 171.426c0-94.676 76.75-171.426 171.426-171.426 94.676 0 171.426 76.75 171.426 171.426 0 94.676-76.75 171.426-171.426 171.426-94.676 0-171.426-76.75-171.426-171.426zM171.426 330.24c87.711 0 158.814-71.104 158.814-158.814 0-87.711-71.104-158.814-158.814-158.814-87.711 0-158.814 71.104-158.814 158.814 0 87.711 71.104 158.814 158.814 158.814z" data-fill-palette-color="tertiary" fill="#0a1828" stroke="transparent"></path><ellipse rx="164.56874808852186" ry="164.56874808852186" cx="171.42577925887693" cy="171.42577925887693" fill="#0a1828" stroke="transparent" stroke-width="0" fill-opacity="1" data-fill-palette-color="tertiary"></ellipse></g><g transform="matrix(1,0,0,1,64.84655864529837,101.50216671288611)"><svg viewBox="0 0 213.1584412271571 139.84722509198164" height="139.84722509198164" width="213.1584412271571"><g><svg viewBox="0 0 213.1584412271571 139.84722509198164" height="139.84722509198164" width="213.1584412271571"><g><svg viewBox="0 0 213.1584412271571 139.84722509198164" height="139.84722509198164" width="213.1584412271571"><g><svg viewBox="0 0 213.1584412271571 139.84722509198164" height="139.84722509198164" width="213.1584412271571"><g id="textblocktransform"><svg viewBox="0 0 213.1584412271571 139.84722509198164" height="139.84722509198164" width="213.1584412271571" id="textblock"><g><svg viewBox="0 0 213.1584412271571 139.84722509198164" height="139.84722509198164" width="213.1584412271571"><g transform="matrix(1,0,0,1,0,0)"><svg width="213.1584412271571" viewBox="4 -39.95 61.349999999999994 40.25" height="139.84722509198164" data-palette-color="#178582"><path d="M25.15-2.1L25.15-37.55Q25.15-39.95 28.1-39.95L28.1-39.95Q31.1-39.95 31.1-37.55L31.1-37.55 31.1-2.1Q31.1 0.3 28.1 0.3L28.1 0.3Q25.15 0.3 25.15-2.1L25.15-2.1ZM9.95-37.55L9.95-2.1Q9.95 0.3 6.95 0.3L6.95 0.3Q4 0.3 4-2.1L4-2.1 4-37.55Q4-39.95 6.95-39.95L6.95-39.95Q9.95-39.95 9.95-37.55L9.95-37.55ZM21.65-20.65L21.65-20.65Q21.65-18.9 20.45-17.7 19.25-16.5 17.5-16.5L17.5-16.5Q15.8-16.5 14.6-17.7 13.4-18.9 13.4-20.65L13.4-20.65Q13.4-22.4 14.6-23.6 15.8-24.8 17.5-24.8L17.5-24.8Q19.25-24.8 20.45-23.6 21.65-22.4 21.65-20.65ZM65.35-11.3L65.35-8Q65.35-3.95 62.65-1.95L62.65-1.95Q61.35-1 59.97-0.48 58.6 0.05 57.3 0.05L57.3 0.05 46.4 0.05Q45.1 0.05 43.72-0.48 42.35-1 41.05-1.95L41.05-1.95Q39.75-2.95 39.05-4.42 38.35-5.9 38.35-8L38.35-8 38.35-31.75Q38.35-33.75 39.05-35.27 39.75-36.8 41.05-37.75L41.05-37.75 41-37.75Q42.3-38.6 43.7-39.15 45.1-39.7 46.4-39.7L46.4-39.7 57.3-39.7Q58.6-39.7 60-39.15 61.4-38.6 62.7-37.75L62.7-37.75 62.65-37.75Q63.95-36.8 64.65-35.27 65.35-33.75 65.35-31.75L65.35-31.75 65.35-28.3Q65.35-25.9 62.35-25.9L62.35-25.9Q59.4-25.9 59.4-28.3L59.4-28.3 59.4-31.3Q59.4-32.55 58.65-33.6 57.9-34.65 56.05-34.65L56.05-34.65 47.65-34.65Q45.8-34.65 45.05-33.6 44.3-32.55 44.3-31.3L44.3-31.3 44.3-8.4Q44.3-7.1 45.05-6.05 45.8-5 47.65-5L47.65-5 56.05-5Q57.9-5 58.65-6.05 59.4-7.1 59.4-8.4L59.4-8.4 59.4-11.3Q59.4-13.65 62.35-13.65L62.35-13.65Q65.35-13.65 65.35-11.3L65.35-11.3Z" opacity="1" transform="matrix(1,0,0,1,0,0)" fill="#178582" class="wordmark-text-0" data-fill-palette-color="quaternary" id="text-0"></path></svg></g></svg></g></svg></g></svg></g><g></g></svg></g></svg></g></svg></g></svg></g><defs></defs></svg><rect width="342.85155851775386" height="342.85155851775386" fill="none" stroke="none" visibility="hidden"></rect></g></svg></g></svg>